<svg width="8" height="26" viewBox="0 0 8 26" fill="none" xmlns="http://www.w3.org/2000/svg">
<path d="M4.44238 5.87305C6.37538 5.87305 7.94238 4.75376 7.94238 3.37305C7.94238 1.99233 6.37538 0.873047 4.44238 0.873047C2.50939 0.873047 0.942383 1.99233 0.942383 3.37305C0.942383 4.75376 2.50939 5.87305 4.44238 5.87305Z" fill="#1A66FF"/>
<path d="M4.44238 15.873C6.37538 15.873 7.94238 14.7538 7.94238 13.373C7.94238 11.9923 6.37538 10.873 4.44238 10.873C2.50939 10.873 0.942383 11.9923 0.942383 13.373C0.942383 14.7538 2.50939 15.873 4.44238 15.873Z" fill="#1A66FF"/>
<path d="M4.44238 25.873C6.37538 25.873 7.94238 24.7538 7.94238 23.373C7.94238 21.9923 6.37538 20.873 4.44238 20.873C2.50939 20.873 0.942383 21.9923 0.942383 23.373C0.942383 24.7538 2.50939 25.873 4.44238 25.873Z" fill="#1A66FF"/>
</svg>