<svg width="21" height="19" viewBox="0 0 21 19" fill="none" xmlns="http://www.w3.org/2000/svg">
<path d="M16.625 18.2493H4.375C4.14294 18.2493 3.92038 18.1527 3.75628 17.9808C3.59219 17.8089 3.5 17.5757 3.5 17.3326V9.08261H0.875L9.91113 0.476942C10.0722 0.32338 10.2822 0.238281 10.5 0.238281C10.7178 0.238281 10.9278 0.32338 11.0889 0.476942L20.125 9.08261H17.5V17.3326C17.5 17.5757 17.4078 17.8089 17.2437 17.9808C17.0796 18.1527 16.8571 18.2493 16.625 18.2493ZM5.25 16.4159H15.75V7.39319L10.5 2.39369L5.25 7.39319V16.4159ZM10.5 12.7493C9.91984 12.7493 9.36344 12.5078 8.9532 12.0781C8.54297 11.6483 8.3125 11.0654 8.3125 10.4576C8.3125 9.84982 8.54297 9.26693 8.9532 8.83716C9.36344 8.40739 9.91984 8.16594 10.5 8.16594C11.0802 8.16594 11.6366 8.40739 12.0468 8.83716C12.457 9.26693 12.6875 9.84982 12.6875 10.4576C12.6875 11.0654 12.457 11.6483 12.0468 12.0781C11.6366 12.5078 11.0802 12.7493 10.5 12.7493Z" fill="#959595"/>
</svg>
