<svg width="14" height="12" viewBox="0 0 14 12" fill="none" xmlns="http://www.w3.org/2000/svg">
<path d="M6.04543 1.93541H7.9541C8.83734 1.93621 9.60421 2.54396 9.80677 3.40366C9.82377 3.47533 9.88769 3.52599 9.96135 3.52616H12.8862C12.9284 3.52631 12.9689 3.50966 12.9988 3.47989C13.0286 3.45012 13.0454 3.40967 13.0454 3.36749V1.77616C13.0454 1.43863 12.9113 1.11494 12.6726 0.876333C12.4339 0.637724 12.1101 0.503752 11.7726 0.503906H2.22693C1.88941 0.503752 1.56566 0.637724 1.32694 0.876333C1.08822 1.11494 0.954102 1.43863 0.954102 1.77616V3.36749C0.954101 3.40967 0.970898 3.45012 1.00078 3.47989C1.03066 3.50966 1.07117 3.52631 1.11335 3.52616H4.03818C4.11199 3.52642 4.17616 3.47557 4.19277 3.40366C4.39532 2.54396 5.1622 1.93621 6.04543 1.93541Z M0.636417 4.48047C0.467581 4.48031 0.305616 4.54732 0.186231 4.6667C0.0668464 4.78608 -0.000154698 4.94805 2.68218e-07 5.11689V8.45764C-2.50467e-07 8.7601 0.212885 9.02078 0.50925 9.08122C0.583199 9.09643 0.636306 9.16147 0.636417 9.23697V10.5256C0.636417 10.877 0.92135 11.162 1.27283 11.162C1.62432 11.162 1.90925 10.877 1.90925 10.5256V9.2533C1.9091 9.21112 1.92574 9.17061 1.95552 9.14073C1.98529 9.11085 2.02573 9.09405 2.06792 9.09405H11.9321C11.9743 9.09405 12.0147 9.11085 12.0445 9.14073C12.0743 9.17061 12.0909 9.21112 12.0908 9.2533V10.5256C12.0908 10.877 12.3757 11.162 12.7272 11.162C13.0787 11.162 13.3636 10.877 13.3636 10.5256V9.23697C13.3637 9.16147 13.4168 9.09643 13.4908 9.08122C13.7871 9.02078 14 8.7601 14 8.45764V5.11689C14.0002 4.94805 13.9332 4.78608 13.8138 4.6667C13.6944 4.54732 13.5324 4.48031 13.3636 4.48047H0.636417Z" fill="black"/>
</svg>
