<svg width="16" height="16" viewBox="0 0 16 16" fill="none" xmlns="http://www.w3.org/2000/svg">
<path fill-rule="evenodd" clip-rule="evenodd" d="M15.3331 9.3331C15.5176 9.33444 15.6933 9.41159 15.8191 9.54644C15.9453 9.67862 16.0108 9.85736 15.9998 10.0398C15.7995 13.3872 13.0266 15.9994 9.67315 15.9998H6.32648C2.97306 15.9994 0.200142 13.3872 -0.000188023 10.0398C-0.00897117 9.85781 0.0559115 9.67999 0.179812 9.54644C0.304733 9.40994 0.481445 9.33247 0.666479 9.3331H3.07848C3.22547 9.33449 3.35601 9.23942 3.39981 9.0991C3.57391 8.54548 4.08613 8.16806 4.66648 8.16577H8.00315C8.5835 8.16806 9.09571 8.54548 9.26981 9.0991C9.31325 9.23824 9.44205 9.33302 9.58781 9.3331H13.1658C13.3499 9.3331 13.4991 9.18387 13.4991 8.99977V1.99977C13.4999 1.73631 13.3454 1.49712 13.105 1.38944C12.8645 1.28175 12.5832 1.32578 12.3871 1.50177L12.1138 1.7751C12.0249 1.86468 11.9942 1.99682 12.0345 2.11644C12.2669 2.80303 12.0905 3.56204 11.5791 4.07577L11.4458 4.21244C11.1855 4.47269 10.7635 4.47269 10.5031 4.21244L8.73981 2.44844C8.47956 2.1881 8.47956 1.7661 8.73981 1.50577L8.87648 1.3691C9.3963 0.872512 10.1468 0.701463 10.8305 0.92377C10.9492 0.961496 11.0791 0.929868 11.1671 0.84177L11.4758 0.533103C12.0591 -0.00588149 12.906 -0.148682 13.6338 0.169246C14.3616 0.487175 14.8323 1.20559 14.8331 1.99977V8.99977C14.8331 9.18387 14.9824 9.3331 15.1665 9.3331H15.3331ZM7.66648 13.4998C7.85057 13.4998 7.99981 13.3505 7.99981 13.1664V9.8331C7.99981 9.64901 7.85057 9.49977 7.66648 9.49977H4.99981C4.81572 9.49977 4.66648 9.64901 4.66648 9.8331V13.1664C4.66648 13.3505 4.81572 13.4998 4.99981 13.4998H7.66648Z" fill="black"/>
<path d="M5.99976 4.0588C6.09602 4.05964 6.19131 4.03963 6.27909 4.00014L7.48976 3.44147C7.70638 3.34203 7.8535 3.13458 7.87569 2.89726C7.89789 2.65994 7.79179 2.42881 7.59736 2.29093C7.40293 2.15305 7.14972 2.12937 6.93309 2.2288L5.72043 2.7868C5.43613 2.91798 5.28143 3.22932 5.34859 3.53513C5.41575 3.84094 5.68666 4.05881 5.99976 4.0588Z" fill="black"/>
<path d="M9.41412 7.67298C9.75267 7.8174 10.1442 7.66013 10.2888 7.32164L10.8128 6.09498C10.9479 5.7585 10.7894 5.37572 10.4559 5.23337C10.1224 5.09102 9.73629 5.2413 9.58679 5.57164L9.06612 6.80031C8.92263 7.1374 9.07804 7.52712 9.41412 7.67298Z" fill="black"/>
<path d="M6.99039 6.05001C7.24943 6.31155 7.67144 6.31364 7.93306 6.05467L8.88106 5.11734C9.1356 4.85725 9.13454 4.44109 8.87867 4.18231C8.6228 3.92353 8.20668 3.91776 7.94372 4.16934L6.99572 5.10734C6.73399 5.3662 6.7316 5.7882 6.99039 6.05001Z" fill="black"/>
</svg>