<svg width="139" height="46" viewBox="0 0 139 46" fill="none" xmlns="http://www.w3.org/2000/svg">
<line x1="2.18557e-07" y1="14.5" x2="31" y2="14.5" stroke="black" stroke-width="5"/>
<line y1="24" x2="20.025" y2="24" stroke="#F4A523" stroke-width="5"/>
<line x1="0.0117185" y1="35.5" x2="31.0117" y2="35.5" stroke="white" stroke-width="5"/>
<path d="M39.356 24.828H49.502V27.64H39.356V24.828ZM67.3736 13.656C66.7656 13.504 66.1322 13.3647 65.4736 13.238C64.8909 13.1113 64.2196 13.01 63.4596 12.934C62.7249 12.8327 61.9522 12.782 61.1416 12.782C59.2669 12.782 57.9242 13.0733 57.1136 13.656C56.3029 14.2133 55.8976 15.0873 55.8976 16.278C55.9229 17.2153 56.2649 18.0133 56.9236 18.672C57.5822 19.3053 58.4056 19.9007 59.3936 20.458C60.3816 20.99 61.4582 21.522 62.6236 22.054C63.8142 22.5607 64.9036 23.156 65.8916 23.84C66.8796 24.4987 67.7029 25.284 68.3616 26.196C69.0456 27.0827 69.3876 28.172 69.3876 29.464C69.3876 30.9587 69.0582 32.162 68.3996 33.074C67.7662 33.986 66.9556 34.6953 65.9676 35.202C64.9796 35.7087 63.8902 36.0507 62.6996 36.228C61.5342 36.4053 60.4196 36.494 59.3556 36.494C58.3422 36.494 57.4176 36.4307 56.5816 36.304C55.7456 36.1773 55.0236 36.038 54.4156 35.886C53.7062 35.7087 53.0602 35.506 52.4776 35.278L53.2376 32.2C53.8202 32.4533 54.4409 32.6687 55.0996 32.846C55.6822 32.998 56.3282 33.1373 57.0376 33.264C57.7722 33.3907 58.5449 33.454 59.3556 33.454C60.3436 33.454 61.2429 33.3907 62.0536 33.264C62.8896 33.1373 63.6116 32.9347 64.2196 32.656C64.8276 32.3773 65.2962 32.01 65.6256 31.554C65.9802 31.098 66.1576 30.5407 66.1576 29.882C66.1322 28.894 65.8029 28.096 65.1696 27.488C64.5616 26.8547 63.7382 26.2593 62.6996 25.702C61.6862 25.1193 60.5842 24.562 59.3936 24.03C58.2282 23.498 57.1516 22.89 56.1636 22.206C55.1756 21.522 54.3396 20.7113 53.6556 19.774C52.9969 18.8367 52.6676 17.6713 52.6676 16.278C52.6676 15.4673 52.8069 14.6693 53.0856 13.884C53.3642 13.0987 53.8329 12.402 54.4916 11.794C55.1756 11.186 56.0496 10.692 57.1136 10.312C58.2029 9.932 59.5456 9.742 61.1416 9.742C62.0536 9.742 62.9149 9.79267 63.7256 9.894C64.5616 9.97 65.2836 10.0587 65.8916 10.16C66.6009 10.2867 67.2722 10.426 67.9056 10.578L67.3736 13.656ZM77.3949 11.186V16.886H82.9049V19.356H77.3949V29.502C77.3949 30.338 77.4076 31.0347 77.4329 31.592C77.4836 32.1493 77.5722 32.5927 77.6989 32.922C77.8256 33.2513 78.0029 33.492 78.2309 33.644C78.4589 33.7707 78.7502 33.834 79.1049 33.834C80.0676 33.8087 81.1822 33.454 82.4489 32.77L83.3609 35.088C82.5249 35.6453 81.7396 36.0127 81.0049 36.19C80.2956 36.3927 79.5862 36.494 78.8769 36.494C77.2049 36.494 76.0269 36.0253 75.3429 35.088C74.6842 34.1253 74.3549 32.542 74.3549 30.338V19.356H70.8589V16.886H74.3549V11.566L77.3949 11.186ZM97.4307 27.222C96.924 27.2473 96.4427 27.2727 95.9867 27.298C95.5307 27.3233 95.0747 27.3613 94.6187 27.412C94.188 27.4373 93.7954 27.4753 93.4407 27.526C91.6167 27.754 90.3247 28.1593 89.5647 28.742C88.8047 29.2993 88.4247 30.11 88.4247 31.174C88.4247 32.0607 88.6907 32.732 89.2227 33.188C89.78 33.6187 90.502 33.834 91.3887 33.834C92.6047 33.834 93.6814 33.6313 94.6187 33.226C95.5814 32.7953 96.5187 32.238 97.4307 31.554V27.222ZM97.3927 34.214C96.202 34.898 95.0874 35.4553 94.0487 35.886C93.0354 36.2913 91.9334 36.494 90.7427 36.494C89.0454 36.494 87.69 36.0887 86.6767 35.278C85.6887 34.442 85.1947 33.074 85.1947 31.174C85.1947 30.186 85.448 29.3247 85.9547 28.59C86.4614 27.8553 87.12 27.2473 87.9307 26.766C88.7667 26.2593 89.704 25.8667 90.7427 25.588C91.7814 25.3093 92.8454 25.132 93.9347 25.056C94.3907 25.0053 94.986 24.9673 95.7207 24.942C96.4554 24.8913 97.0254 24.8533 97.4307 24.828C97.4307 23.9413 97.4054 23.156 97.3547 22.472C97.304 21.7627 97.152 21.1673 96.8987 20.686C96.6454 20.1793 96.2654 19.7993 95.7587 19.546C95.2774 19.2927 94.5807 19.166 93.6687 19.166C92.934 19.166 92.2247 19.2167 91.5407 19.318C90.8567 19.394 90.2487 19.4827 89.7167 19.584C89.0834 19.7107 88.5007 19.85 87.9687 20.002L87.3607 17.38C87.994 17.228 88.678 17.0887 89.4127 16.962C90.046 16.8353 90.7807 16.734 91.6167 16.658C92.4527 16.5567 93.352 16.506 94.3147 16.506C95.6067 16.506 96.6454 16.696 97.4307 17.076C98.2414 17.456 98.862 17.9753 99.2927 18.634C99.7487 19.2673 100.053 20.002 100.205 20.838C100.382 21.6487 100.471 22.51 100.471 23.422V32.542C100.471 32.8967 100.471 33.2767 100.471 33.682C100.496 34.062 100.521 34.442 100.547 34.822C100.597 35.202 100.648 35.5947 100.699 36L97.7727 36.304L97.3927 34.214ZM117.684 19.66C117.253 19.5587 116.658 19.4573 115.898 19.356C115.138 19.2293 114.365 19.166 113.58 19.166C112.44 19.166 111.502 19.394 110.768 19.85C110.058 20.306 109.501 20.9013 109.096 21.636C108.69 22.3453 108.412 23.1433 108.26 24.03C108.108 24.8913 108.032 25.74 108.032 26.576C108.032 27.868 108.196 28.9827 108.526 29.92C108.855 30.832 109.286 31.5793 109.818 32.162C110.375 32.7447 111.008 33.1753 111.718 33.454C112.427 33.7073 113.174 33.834 113.96 33.834C114.492 33.834 114.998 33.8087 115.48 33.758C115.986 33.682 116.442 33.606 116.848 33.53C117.278 33.4287 117.684 33.3147 118.064 33.188L118.672 35.734C118.14 35.886 117.646 36.0127 117.19 36.114C116.734 36.2153 116.189 36.304 115.556 36.38C114.948 36.456 114.289 36.494 113.58 36.494C112.186 36.494 110.945 36.3167 109.856 35.962C108.766 35.6073 107.842 35.0373 107.082 34.252C106.347 33.4667 105.777 32.4407 105.372 31.174C104.992 29.9073 104.802 28.362 104.802 26.538C104.802 24.7647 105.042 23.2447 105.524 21.978C106.03 20.686 106.689 19.6473 107.5 18.862C108.31 18.0513 109.235 17.456 110.274 17.076C111.338 16.696 112.44 16.506 113.58 16.506C114.188 16.506 114.77 16.544 115.328 16.62C115.91 16.6707 116.417 16.734 116.848 16.81C117.354 16.9113 117.836 17.0127 118.292 17.114L117.684 19.66ZM122.416 7.538L125.456 7.196V24.334L133.93 16.886H138.11L129.826 24.144L138.414 36H134.576L127.584 26.082L125.456 27.944V36H122.416V7.538Z" fill="white"/>
<path d="M31 11L36.1962 20H25.8038L31 11Z" fill="#385AF6"/>
<path d="M20 19L25.1962 28H14.8038L20 19Z" fill="#3959F6"/>
<path d="M31.0117 29L36.2079 38H25.8156L31.0117 29Z" fill="#385AF6"/>
</svg>
