<svg width="38" height="37" viewBox="0 0 38 37" fill="none" xmlns="http://www.w3.org/2000/svg">
<path d="M18.6 0C8.32805 0 0 8.15947 0 18.2235C0 27.3179 6.80084 34.8559 15.6944 36.2283V23.4924H10.9695V18.2235H15.6944V14.2085C15.6944 9.63755 18.4716 7.11698 22.7185 7.11698C24.7535 7.11698 26.8853 7.47238 26.8853 7.47238V11.954H24.534C22.2274 11.954 21.5056 13.361 21.5056 14.8026V18.2198H26.6602L25.8361 23.4888H21.5056V36.2246C30.3992 34.8596 37.2 27.3197 37.2 18.2235C37.2 8.15947 28.8719 0 18.6 0V0Z" fill="white"/>
</svg>
