<svg width="42" height="41" viewBox="0 0 42 41" fill="none" xmlns="http://www.w3.org/2000/svg">
<path fill-rule="evenodd" clip-rule="evenodd" d="M0 20.0723C0 8.98669 9.2278 0 20.6108 0C31.9938 0 41.2216 8.98669 41.2216 20.0723C41.2216 31.1578 31.9938 40.1445 20.6108 40.1445C9.2278 40.1445 0 31.1578 0 20.0723ZM5.54896 14.439C7.18411 10.2943 10.5708 6.99485 14.8267 5.40182L17.107 10.6784C15.6999 11.1778 14.4215 11.9699 13.3608 12.9994C12.3 14.029 11.4825 15.2713 10.965 16.6399L5.54896 14.439ZM14.8097 34.7343C10.5622 33.1394 7.18258 29.8446 5.54943 25.7064L10.965 23.5247C11.4789 24.8897 12.293 26.1288 13.3505 27.1552C14.4079 28.1815 15.683 28.9702 17.0864 29.4661L14.8097 34.7343ZM35.6661 25.7218C34.0309 29.8521 30.6552 33.1404 26.4139 34.7335L24.1765 29.4661C25.5736 28.962 26.8413 28.1675 27.8913 27.138C28.9413 26.1085 29.7485 24.8687 30.2567 23.5046L35.6661 25.7218ZM26.422 5.41198C30.659 7.0065 34.031 10.2934 35.6655 14.4208L30.2567 16.5998C29.7404 15.2471 28.9297 14.0193 27.8802 13.0007C26.8306 11.982 25.5671 11.1967 24.1765 10.6985L26.422 5.41198ZM14.4276 20.0723C14.4276 23.4043 17.1894 26.0939 20.6108 26.0939C24.0322 26.0939 26.7941 23.4043 26.7941 20.0723C26.7941 16.7403 24.0322 14.0506 20.6108 14.0506C17.1894 14.0506 14.4276 16.7403 14.4276 20.0723Z" fill="white"/>
</svg>
