<svg width="42" height="41" viewBox="0 0 42 41" fill="none" xmlns="http://www.w3.org/2000/svg">
<path fill-rule="evenodd" clip-rule="evenodd" d="M0 20.0723C0 8.98669 9.2278 0 20.6108 0C31.9938 0 41.2216 8.98669 41.2216 20.0723C41.2216 31.1578 31.9938 40.1445 20.6108 40.1445C9.2278 40.1445 0 31.1578 0 20.0723ZM36.7407 20.0723C36.7407 11.3976 29.5205 4.3614 20.6108 4.3614C11.7011 4.3614 4.48096 11.3976 4.48093 20.0723C4.48093 28.747 11.7011 35.7807 20.6108 35.7807C29.5205 35.7807 36.7407 28.747 36.7407 20.0723ZM26.5749 14.3179V17.4492C27.8527 17.4492 29.1306 18.7017 29.1306 20.163V27.4693C29.1306 28.7219 27.8527 29.9744 26.3619 29.9744H14.6481C13.3702 29.9744 12.0924 28.7218 12.0924 27.2606V19.9542C12.0924 18.7017 13.3702 17.4492 14.6481 17.4492V14.3179C14.6481 11.3954 17.6298 9.09912 20.6115 9.09912C23.5932 9.09912 26.5749 11.3954 26.5749 14.3179ZM17.4168 17.4492H23.8062V14.3179C23.8062 12.6479 22.3153 11.6041 20.6115 11.6041C18.9077 11.6041 17.4168 12.6479 17.4168 14.3179V17.4492Z" fill="white"/>
</svg>
