<svg width="47" height="37" viewBox="0 0 47 37" fill="none" xmlns="http://www.w3.org/2000/svg">
<path d="M46.2487 4.30344C44.5479 5.01085 42.697 5.51997 40.7906 5.71826C42.7699 4.58445 44.2521 2.79322 44.9592 0.680637C43.1019 1.74598 41.0672 2.49302 38.9454 2.88862C38.0585 1.97448 36.986 1.24624 35.7945 0.749274C34.603 0.252306 33.3182 -0.00274274 32.02 2.22427e-05C26.7676 2.22427e-05 22.5435 4.10515 22.5435 9.14277C22.5435 9.85018 22.6324 10.5576 22.7769 11.2382C14.9123 10.8416 7.89801 7.21883 3.23479 1.67208C2.38511 3.07145 1.93984 4.66478 1.94532 6.28633C1.94532 9.45896 3.6183 12.2564 6.16945 13.9017C4.66602 13.8446 3.19779 13.4462 1.88418 12.7388V12.8513C1.88418 17.2941 5.14121 20.9758 9.48206 21.8226C8.66702 22.0267 7.82857 22.1311 6.98649 22.1334C6.36954 22.1334 5.78594 22.0745 5.19679 21.9941C6.39733 25.6169 9.89335 28.2482 14.0563 28.334C10.7993 30.7938 6.7197 32.2408 2.28992 32.2408C1.49512 32.2408 0.761455 32.214 0 32.1283C4.2019 34.7275 9.18748 36.228 14.5566 36.228C31.9867 36.228 41.5243 22.3049 41.5243 10.22C41.5243 9.82339 41.5243 9.42681 41.4965 9.03023C43.3418 7.72795 44.9592 6.11484 46.2487 4.30344Z" fill="white"/>
</svg>
