<svg width="36" height="35" viewBox="0 0 36 35" fill="none" xmlns="http://www.w3.org/2000/svg">
<path fill-rule="evenodd" clip-rule="evenodd" d="M3.57737 0C21.1753 0 35.4977 13.9077 35.5724 31.029V31.03H35.5751V32.8416H35.5541C35.5075 33.2433 35.323 33.6179 35.0304 33.9047C34.7378 34.1914 34.3543 34.3735 33.9421 34.4214V34.4429H30.6348V34.4392C30.1874 34.4301 29.7587 34.263 29.4284 33.969C29.0981 33.675 28.8887 33.2742 28.8392 32.841H28.8182V31.0295H28.837C28.7624 17.524 17.4616 6.559 3.57684 6.559C3.56366 6.559 3.55047 6.55807 3.53729 6.55714C3.52631 6.55636 3.51533 6.55558 3.50434 6.55534V6.58044H1.64424V6.56005C1.23171 6.51478 0.846994 6.33507 0.552521 6.05009C0.258049 5.76511 0.0711016 5.39158 0.0220165 4.99011H0V1.76918H0.00375886C0.01312 1.33348 0.184701 0.915932 0.486572 0.594235C0.788444 0.272539 1.20004 0.0686091 1.64478 0.0203953V0H3.50488V0.00366073C3.51581 0.00342426 3.52662 0.00265316 3.53748 0.00187928C3.55063 0.000941688 3.56384 0 3.57737 0ZM3.5375 12.4135L3.53747 12.4135C3.52662 12.4143 3.51581 12.415 3.50488 12.4153V12.4116H1.64478V12.432C1.20004 12.4802 0.788444 12.6842 0.486572 13.0059C0.184701 13.3276 0.01312 13.7451 0.00375886 14.1808H0V17.4018H0.0220165C0.0711939 17.8032 0.258171 18.1767 0.552626 18.4617C0.847081 18.7467 1.23175 18.9264 1.64424 18.9718V18.9921H3.50434V18.967C3.51533 18.9673 3.52631 18.9681 3.5373 18.9688C3.55048 18.9698 3.56366 18.9707 3.57684 18.9707C10.4352 18.9707 16.0203 24.3683 16.0944 31.0309H16.0767V32.8425H16.0976C16.1472 33.2756 16.3565 33.6765 16.6869 33.9705C17.0172 34.2645 17.4459 34.4316 17.8933 34.4407V34.4443H21.2V34.4229C21.6122 34.375 21.9957 34.1929 22.2883 33.9061C22.5809 33.6194 22.7655 33.2447 22.8121 32.843H22.833V31.0314H22.8298C22.7562 20.7514 14.1489 12.4116 3.57737 12.4116C3.56385 12.4116 3.55065 12.4126 3.5375 12.4135ZM5.04067 25.0383C4.42135 25.0383 3.80809 25.1572 3.23594 25.388C2.66378 25.6189 2.14394 25.9573 1.70612 26.3839C1.26829 26.8105 0.92105 27.3169 0.68424 27.8742C0.44743 28.4315 0.32569 29.0288 0.325972 29.632C0.325972 30.2351 0.447949 30.8323 0.684939 31.3895C0.921928 31.9467 1.26929 32.453 1.70719 32.8795C2.14509 33.3059 2.66495 33.6442 3.2371 33.875C3.80924 34.1058 4.42246 34.2246 5.04175 34.2246C5.66103 34.2246 6.27425 34.1058 6.8464 33.875C7.41854 33.6442 7.9384 33.3059 8.3763 32.8795C8.8142 32.453 9.16156 31.9467 9.39855 31.3895C9.63554 30.8323 9.75752 30.2351 9.75752 29.632C9.7578 29.0287 9.63599 28.4312 9.39905 27.8738C9.1621 27.3163 8.81467 26.8098 8.37662 26.3832C7.93856 25.9566 7.41847 25.6182 6.84607 25.3874C6.27366 25.1567 5.66018 25.0381 5.04067 25.0383Z" fill="white"/>
</svg>
