<svg width="42" height="40" viewBox="0 0 42 40" fill="none" xmlns="http://www.w3.org/2000/svg">
<path d="M2.30266 38.7055L2.30158 38.7055C2.04853 38.7051 1.79912 38.6552 1.5695 38.5598C1.33991 38.4645 1.13624 38.3262 0.970415 38.1555L0.970446 38.1555L0.965779 38.1508C0.797516 37.9822 0.671086 37.7841 0.592745 37.5704L0.123298 37.7425L0.592745 37.5704C0.514476 37.3569 0.485439 37.1313 0.506804 36.9079C0.506812 36.9078 0.50682 36.9077 0.506828 36.9076L1.05008 31.2985L26.5076 7.40237L33.8827 14.3256L8.46746 38.1863L2.46677 38.6987L2.46623 38.6987C2.41186 38.7034 2.35727 38.7057 2.30266 38.7055ZM36.2312 12.1183L28.8583 5.19522L33.3307 0.995611L33.3309 0.99542C33.496 0.840213 33.6938 0.715545 33.9136 0.629975C34.1335 0.544392 34.3701 0.5 34.6098 0.5C34.8495 0.5 35.0862 0.544393 35.306 0.629975C35.5259 0.715546 35.7236 0.840213 35.8887 0.99542L35.8889 0.995611L40.7495 5.55972L40.7497 5.55991C40.915 5.71489 41.0443 5.89722 41.1318 6.09557C41.2193 6.29382 41.2639 6.50512 41.2639 6.71767C41.2639 6.93022 41.2193 7.14152 41.1318 7.33978C41.0443 7.53812 40.915 7.72045 40.7497 7.87543L40.7495 7.87562L36.2312 12.1183Z" fill="black" stroke="#F4A523"/>
</svg>
