<svg width="17" height="13" viewBox="0 0 17 13" fill="none" xmlns="http://www.w3.org/2000/svg">
<path d="M8.79389 12.9238C4.4451 12.9238 0.919922 10.1817 0.919922 6.79883C0.919922 3.41599 4.4451 0.673828 8.79389 0.673828C13.1427 0.673828 16.6679 3.41599 16.6679 6.79883C16.6679 10.1817 13.1427 12.9238 8.79389 12.9238ZM8.79389 11.6988C10.4645 11.6988 12.0668 11.1826 13.2481 10.2637C14.4294 9.34472 15.0931 8.09839 15.0931 6.79883C15.0931 5.49927 14.4294 4.25293 13.2481 3.33401C12.0668 2.41508 10.4645 1.89883 8.79389 1.89883C7.12324 1.89883 5.52102 2.41508 4.3397 3.33401C3.15838 4.25293 2.49471 5.49927 2.49471 6.79883C2.49471 8.09839 3.15838 9.34472 4.3397 10.2637C5.52102 11.1826 7.12324 11.6988 8.79389 11.6988ZM8.79389 3.76695L12.6915 6.79883L8.79389 9.8307L4.89627 6.79883L8.79389 3.76695ZM8.79389 5.49972L7.12382 6.79883L8.79389 8.09794L10.464 6.79883L8.79389 5.49972Z" fill="white"/>
</svg>