<svg width="17" height="14" viewBox="0 0 17 14" fill="none" xmlns="http://www.w3.org/2000/svg">
<path d="M8.78907 13.125C4.44132 13.125 0.916992 10.3828 0.916992 7C0.916992 3.61716 4.44132 0.875 8.78907 0.875C13.1368 0.875 16.6611 3.61716 16.6611 7C16.6611 10.3828 13.1368 13.125 8.78907 13.125ZM8.78907 11.9C10.4593 11.9 12.0611 11.3838 13.2422 10.4648C14.4232 9.5459 15.0867 8.29956 15.0867 7C15.0867 5.70044 14.4232 4.45411 13.2422 3.53518C12.0611 2.61625 10.4593 2.1 8.78907 2.1C7.11883 2.1 5.51699 2.61625 4.33595 3.53518C3.15491 4.45411 2.49141 5.70044 2.49141 7C2.49141 8.29956 3.15491 9.5459 4.33595 10.4648C5.51699 11.3838 7.11883 11.9 8.78907 11.9ZM6.03384 8.225H10.3635C10.4679 8.225 10.568 8.19273 10.6418 8.1353C10.7156 8.07787 10.7571 7.99997 10.7571 7.91875C10.7571 7.83753 10.7156 7.75963 10.6418 7.7022C10.568 7.64477 10.4679 7.6125 10.3635 7.6125H7.21465C6.6927 7.6125 6.19213 7.45117 5.82305 7.16401C5.45398 6.87684 5.24663 6.48736 5.24663 6.08125C5.24663 5.67514 5.45398 5.28566 5.82305 4.99849C6.19213 4.71133 6.6927 4.55 7.21465 4.55H8.00186V3.325H9.57628V4.55H11.5443V5.775H7.21465C7.11026 5.775 7.01015 5.80727 6.93633 5.8647C6.86252 5.92213 6.82105 6.00003 6.82105 6.08125C6.82105 6.16247 6.86252 6.24037 6.93633 6.2978C7.01015 6.35523 7.11026 6.3875 7.21465 6.3875H10.3635C10.8854 6.3875 11.386 6.54883 11.7551 6.83599C12.1242 7.12316 12.3315 7.51264 12.3315 7.91875C12.3315 8.32486 12.1242 8.71434 11.7551 9.00151C11.386 9.28867 10.8854 9.45 10.3635 9.45H9.57628V10.675H8.00186V9.45H6.03384V8.225Z" fill="white"/>
</svg>