<svg width="51" height="20" viewBox="0 0 51 20" fill="none" xmlns="http://www.w3.org/2000/svg">
<path d="M9.02734 3.42578C7.14453 3.42578 5.65625 4.05469 4.5625 5.3125C3.47656 6.5625 2.93359 8.27734 2.93359 10.457C2.93359 12.6992 3.45703 14.4336 4.50391 15.6602C5.55859 16.8789 7.05859 17.4883 9.00391 17.4883C10.1992 17.4883 11.5625 17.2734 13.0938 16.8438V18.5898C11.9062 19.0352 10.4414 19.2578 8.69922 19.2578C6.17578 19.2578 4.22656 18.4922 2.85156 16.9609C1.48438 15.4297 0.800781 13.2539 0.800781 10.4336C0.800781 8.66797 1.12891 7.12109 1.78516 5.79297C2.44922 4.46484 3.40234 3.44141 4.64453 2.72266C5.89453 2.00391 7.36328 1.64453 9.05078 1.64453C10.8477 1.64453 12.418 1.97266 13.7617 2.62891L12.918 4.33984C11.6211 3.73047 10.3242 3.42578 9.02734 3.42578ZM18.4844 19.0234H16.5391V0.789062H18.4844V19.0234ZM24.5547 19.0234H22.6094V6.17969H24.5547V19.0234ZM22.4453 2.69922C22.4453 2.25391 22.5547 1.92969 22.7734 1.72656C22.9922 1.51562 23.2656 1.41016 23.5938 1.41016C23.9062 1.41016 24.1758 1.51562 24.4023 1.72656C24.6289 1.9375 24.7422 2.26172 24.7422 2.69922C24.7422 3.13672 24.6289 3.46484 24.4023 3.68359C24.1758 3.89453 23.9062 4 23.5938 4C23.2656 4 22.9922 3.89453 22.7734 3.68359C22.5547 3.46484 22.4453 3.13672 22.4453 2.69922ZM33.8125 19.2578C31.9531 19.2578 30.5117 18.6875 29.4883 17.5469C28.4727 16.3984 27.9648 14.7773 27.9648 12.6836C27.9648 10.5352 28.4805 8.875 29.5117 7.70312C30.5508 6.53125 32.0273 5.94531 33.9414 5.94531C34.5586 5.94531 35.1758 6.01172 35.793 6.14453C36.4102 6.27734 36.8945 6.43359 37.2461 6.61328L36.6484 8.26562C36.2188 8.09375 35.75 7.95312 35.2422 7.84375C34.7344 7.72656 34.2852 7.66797 33.8945 7.66797C31.2852 7.66797 29.9805 9.33203 29.9805 12.6602C29.9805 14.2383 30.2969 15.4492 30.9297 16.293C31.5703 17.1367 32.5156 17.5586 33.7656 17.5586C34.8359 17.5586 35.9336 17.3281 37.0586 16.8672V18.5898C36.1992 19.0352 35.1172 19.2578 33.8125 19.2578ZM42.0391 12.4492C42.375 11.9727 42.8867 11.3477 43.5742 10.5742L47.7227 6.17969H50.0312L44.8281 11.6523L50.3945 19.0234H48.0391L43.5039 12.9531L42.0391 14.2188V19.0234H40.1172V0.789062H42.0391V10.457C42.0391 10.8867 42.0078 11.5508 41.9453 12.4492H42.0391Z" fill="black"/>
<path d="M4.5625 5.3125L3.80789 4.65632L3.80759 4.65667L4.5625 5.3125ZM4.50391 15.6602L3.74327 16.3094L3.74774 16.3145L4.50391 15.6602ZM13.0938 16.8438H14.0938V15.5245L12.8236 15.8809L13.0938 16.8438ZM13.0938 18.5898L13.4449 19.5262L14.0938 19.2828V18.5898H13.0938ZM2.85156 16.9609L2.10562 17.627L2.10751 17.6291L2.85156 16.9609ZM1.78516 5.79297L0.890719 5.34575L0.88863 5.34998L1.78516 5.79297ZM4.64453 2.72266L4.14606 1.85575L4.14371 1.85711L4.64453 2.72266ZM13.7617 2.62891L14.6586 3.0712L15.1026 2.17087L14.2006 1.73034L13.7617 2.62891ZM12.918 4.33984L12.4927 5.24491L13.3808 5.66222L13.8148 4.78214L12.918 4.33984ZM9.02734 2.42578C6.89693 2.42578 5.1174 3.15039 3.80789 4.65632L5.31711 5.96868C6.1951 4.95899 7.39213 4.42578 9.02734 4.42578V2.42578ZM3.80759 4.65667C2.51926 6.13964 1.93359 8.11385 1.93359 10.457H3.93359C3.93359 8.44083 4.43387 6.98536 5.31741 5.96833L3.80759 4.65667ZM1.93359 10.457C1.93359 12.8448 2.49097 14.8421 3.74328 16.3094L5.26453 15.011C4.42309 14.0251 3.93359 12.5536 3.93359 10.457H1.93359ZM3.74774 16.3145C5.03153 17.798 6.83404 18.4883 9.00391 18.4883V16.4883C7.28314 16.4883 6.08566 15.9598 5.26008 15.0058L3.74774 16.3145ZM9.00391 18.4883C10.315 18.4883 11.7718 18.2533 13.3639 17.8066L12.8236 15.8809C11.3532 16.2936 10.0835 16.4883 9.00391 16.4883V18.4883ZM12.0938 16.8438V18.5898H14.0938V16.8438H12.0938ZM12.7426 17.6535C11.7008 18.0442 10.3632 18.2578 8.69922 18.2578V20.2578C10.5196 20.2578 12.1117 20.0261 13.4449 19.5262L12.7426 17.6535ZM8.69922 18.2578C6.39022 18.2578 4.73903 17.5662 3.59561 16.2928L2.10751 17.6291C3.7141 19.4182 5.96135 20.2578 8.69922 20.2578V18.2578ZM3.5975 16.2949C2.44645 15.0057 1.80078 13.1005 1.80078 10.4336H-0.199219C-0.199219 13.4073 0.522296 15.8536 2.10562 17.627L3.5975 16.2949ZM1.80078 10.4336C1.80078 8.79241 2.10536 7.40234 2.68168 6.23596L0.88863 5.34998C0.152457 6.83985 -0.199219 8.54353 -0.199219 10.4336H1.80078ZM2.67958 6.24018C3.25938 5.08058 4.07856 4.20547 5.14535 3.58821L4.14371 1.85711C2.72613 2.67734 1.63905 3.84911 0.890729 5.34576L2.67958 6.24018ZM5.143 3.58956C6.21727 2.97186 7.50817 2.64453 9.05078 2.64453V0.644531C7.21839 0.644531 5.57179 1.03595 4.14606 1.85575L5.143 3.58956ZM9.05078 2.64453C10.7258 2.64453 12.1406 2.95009 13.3229 3.52747L14.2006 1.73034C12.6953 0.995222 10.9695 0.644531 9.05078 0.644531V2.64453ZM12.8648 2.18661L12.0211 3.89755L13.8148 4.78214L14.6586 3.0712L12.8648 2.18661ZM13.3432 3.43478C11.9274 2.76951 10.486 2.42578 9.02734 2.42578V4.42578C10.1624 4.42578 11.3148 4.69143 12.4927 5.24491L13.3432 3.43478ZM18.4844 19.0234V20.0234H19.4844V19.0234H18.4844ZM16.5391 19.0234H15.5391V20.0234H16.5391V19.0234ZM16.5391 0.789062V-0.210938H15.5391V0.789062H16.5391ZM18.4844 0.789062H19.4844V-0.210938H18.4844V0.789062ZM18.4844 18.0234H16.5391V20.0234H18.4844V18.0234ZM17.5391 19.0234V0.789062H15.5391V19.0234H17.5391ZM16.5391 1.78906H18.4844V-0.210938H16.5391V1.78906ZM17.4844 0.789062V19.0234H19.4844V0.789062H17.4844ZM24.5547 19.0234V20.0234H25.5547V19.0234H24.5547ZM22.6094 19.0234H21.6094V20.0234H22.6094V19.0234ZM22.6094 6.17969V5.17969H21.6094V6.17969H22.6094ZM24.5547 6.17969H25.5547V5.17969H24.5547V6.17969ZM22.7734 1.72656L23.4539 2.45936L23.4608 2.45295L23.4676 2.44641L22.7734 1.72656ZM24.4023 3.68359L25.0838 4.41549L25.0904 4.4093L25.0969 4.403L24.4023 3.68359ZM22.7734 3.68359L22.0663 4.3907L22.0728 4.39713L22.0793 4.40344L22.7734 3.68359ZM24.5547 18.0234H22.6094V20.0234H24.5547V18.0234ZM23.6094 19.0234V6.17969H21.6094V19.0234H23.6094ZM22.6094 7.17969H24.5547V5.17969H22.6094V7.17969ZM23.5547 6.17969V19.0234H25.5547V6.17969H23.5547ZM23.4453 2.69922C23.4453 2.55431 23.4636 2.47513 23.4749 2.44172C23.4842 2.41411 23.4834 2.43196 23.4539 2.45936L22.093 0.993769C21.5881 1.46261 21.4453 2.11284 21.4453 2.69922H23.4453ZM23.4676 2.44641C23.4842 2.43035 23.5019 2.41016 23.5938 2.41016V0.410156C23.0294 0.410156 22.5001 0.600902 22.0793 1.00672L23.4676 2.44641ZM23.5938 2.41016C23.6561 2.41016 23.6814 2.42164 23.7209 2.45846L25.0838 0.994668C24.6702 0.609609 24.1564 0.410156 23.5938 0.410156V2.41016ZM23.7209 2.45846C23.7027 2.44153 23.7042 2.43195 23.7132 2.45777C23.7242 2.48934 23.7422 2.56348 23.7422 2.69922H25.7422C25.7422 2.10146 25.5859 1.46214 25.0838 0.994668L23.7209 2.45846ZM23.7422 2.69922C23.7422 2.83453 23.7243 2.91129 23.712 2.9471C23.7014 2.9777 23.6965 2.97509 23.7077 2.96419L25.0969 4.403C25.5847 3.93204 25.7422 3.29996 25.7422 2.69922H23.7422ZM23.7209 2.9517C23.6814 2.98851 23.6561 3 23.5938 3V5C24.1564 5 24.6702 4.80055 25.0838 4.41549L23.7209 2.9517ZM23.5938 3C23.5019 3 23.4842 2.97981 23.4676 2.96375L22.0793 4.40344C22.5001 4.80925 23.0294 5 23.5938 5V3ZM23.4805 2.97649C23.5155 3.01142 23.4453 2.98257 23.4453 2.69922H21.4453C21.4453 3.29086 21.5939 3.91827 22.0663 4.3907L23.4805 2.97649ZM29.4883 17.5469L28.7392 18.2094L28.744 18.2147L29.4883 17.5469ZM29.5117 7.70312L28.7635 7.03969L28.761 7.0425L29.5117 7.70312ZM37.2461 6.61328L38.1865 6.95342L38.4864 6.12417L37.7012 5.72285L37.2461 6.61328ZM36.6484 8.26562L36.277 9.1941L37.2371 9.57812L37.5888 8.60576L36.6484 8.26562ZM35.2422 7.84375L35.0173 8.81814L35.0245 8.81979L35.0316 8.82133L35.2422 7.84375ZM30.9297 16.293L30.1297 16.893L30.1332 16.8977L30.9297 16.293ZM37.0586 16.8672H38.0586V15.3768L36.6795 15.9418L37.0586 16.8672ZM37.0586 18.5898L37.5187 19.4777L38.0586 19.1979V18.5898H37.0586ZM33.8125 18.2578C32.1714 18.2578 31.0265 17.7638 30.2326 16.879L28.744 18.2147C29.997 19.6112 31.7349 20.2578 33.8125 20.2578V18.2578ZM30.2374 16.8844C29.4344 15.9764 28.9648 14.6231 28.9648 12.6836H26.9648C26.9648 14.9316 27.511 16.8205 28.7392 18.2093L30.2374 16.8844ZM28.9648 12.6836C28.9648 10.6866 29.4436 9.29429 30.2624 8.36375L28.761 7.0425C27.5174 8.45571 26.9648 10.3837 26.9648 12.6836H28.9648ZM30.26 8.36656C31.0678 7.45541 32.2445 6.94531 33.9414 6.94531V4.94531C31.8102 4.94531 30.0337 5.60709 28.7635 7.03969L30.26 8.36656ZM33.9414 6.94531C34.4863 6.94531 35.033 7.00388 35.5826 7.12215L36.0033 5.16691C35.3186 5.01956 34.6309 4.94531 33.9414 4.94531V6.94531ZM35.5826 7.12215C36.159 7.24619 36.5488 7.37995 36.791 7.50372L37.7012 5.72285C37.2402 5.48724 36.6613 5.3085 36.0033 5.16691L35.5826 7.12215ZM36.3057 6.27314L35.7081 7.92549L37.5888 8.60576L38.1865 6.95342L36.3057 6.27314ZM37.0198 7.33715C36.5321 7.14207 36.0089 6.98596 35.4527 6.86617L35.0316 8.82133C35.4911 8.92029 35.9054 9.04543 36.277 9.1941L37.0198 7.33715ZM35.467 6.86936C34.9083 6.74043 34.3811 6.66797 33.8945 6.66797V8.66797C34.1892 8.66797 34.5604 8.7127 35.0173 8.81814L35.467 6.86936ZM33.8945 6.66797C32.3621 6.66797 31.0581 7.1689 30.172 8.29901C29.3223 9.38282 28.9805 10.8927 28.9805 12.6602H30.9805C30.9805 11.0995 31.291 10.1133 31.7459 9.53302C32.1646 8.99907 32.8176 8.66797 33.8945 8.66797V6.66797ZM28.9805 12.6602C28.9805 14.3525 29.3168 15.8092 30.1297 16.893L31.7297 15.693C31.2769 15.0893 30.9805 14.1241 30.9805 12.6602H28.9805ZM30.1332 16.8977C30.9983 18.037 32.2664 18.5586 33.7656 18.5586V16.5586C32.7649 16.5586 32.1424 16.2365 31.7261 15.6883L30.1332 16.8977ZM33.7656 18.5586C34.9824 18.5586 36.2087 18.2961 37.4377 17.7925L36.6795 15.9418C35.6585 16.3601 34.6894 16.5586 33.7656 16.5586V18.5586ZM36.0586 16.8672V18.5898H38.0586V16.8672H36.0586ZM36.5985 17.702C35.922 18.0525 35.0103 18.2578 33.8125 18.2578V20.2578C35.2241 20.2578 36.4764 20.0178 37.5187 19.4777L36.5985 17.702ZM42.0391 12.4492V13.4492H42.5576L42.8564 13.0254L42.0391 12.4492ZM43.5742 10.5742L42.847 9.88777L42.8368 9.89866L42.8268 9.90985L43.5742 10.5742ZM47.7227 6.17969V5.17969H47.2915L46.9955 5.49323L47.7227 6.17969ZM50.0312 6.17969L50.756 6.86872L52.3618 5.17969H50.0312V6.17969ZM44.8281 11.6523L44.1034 10.9633L43.5189 11.5781L44.0301 12.255L44.8281 11.6523ZM50.3945 19.0234V20.0234H52.4028L51.1925 18.4208L50.3945 19.0234ZM48.0391 19.0234L47.2379 19.622L47.5379 20.0234H48.0391V19.0234ZM43.5039 12.9531L44.305 12.3546L43.6625 11.4946L42.8501 12.1964L43.5039 12.9531ZM42.0391 14.2188L41.3853 13.4621L41.0391 13.7612V14.2188H42.0391ZM42.0391 19.0234V20.0234H43.0391V19.0234H42.0391ZM40.1172 19.0234H39.1172V20.0234H40.1172V19.0234ZM40.1172 0.789062V-0.210938H39.1172V0.789062H40.1172ZM42.0391 0.789062H43.0391V-0.210938H42.0391V0.789062ZM41.9453 12.4492L40.9477 12.3798L40.8733 13.4492H41.9453V12.4492ZM42.8564 13.0254C43.1603 12.5943 43.6432 12.0019 44.3216 11.2386L42.8268 9.90985C42.1303 10.6935 41.5897 11.351 41.2217 11.8731L42.8564 13.0254ZM44.3014 11.2607L48.4498 6.86614L46.9955 5.49323L42.847 9.88777L44.3014 11.2607ZM47.7227 7.17969H50.0312V5.17969H47.7227V7.17969ZM49.3065 5.49065L44.1034 10.9633L45.5529 12.3414L50.756 6.86872L49.3065 5.49065ZM44.0301 12.255L49.5965 19.6261L51.1925 18.4208L45.6261 11.0497L44.0301 12.255ZM50.3945 18.0234H48.0391V20.0234H50.3945V18.0234ZM48.8402 18.4249L44.305 12.3546L42.7028 13.5516L47.2379 19.622L48.8402 18.4249ZM42.8501 12.1964L41.3853 13.4621L42.6928 14.9754L44.1577 13.7098L42.8501 12.1964ZM41.0391 14.2188V19.0234H43.0391V14.2188H41.0391ZM42.0391 18.0234H40.1172V20.0234H42.0391V18.0234ZM41.1172 19.0234V0.789062H39.1172V19.0234H41.1172ZM40.1172 1.78906H42.0391V-0.210938H40.1172V1.78906ZM41.0391 0.789062V10.457H43.0391V0.789062H41.0391ZM41.0391 10.457C41.0391 10.8501 41.01 11.4852 40.9477 12.3798L42.9429 12.5186C43.0057 11.6163 43.0391 10.9234 43.0391 10.457H41.0391ZM41.9453 13.4492H42.0391V11.4492H41.9453V13.4492Z" fill="black"/>
</svg>
