<svg width="48" height="48" viewBox="0 0 48 48" fill="none" xmlns="http://www.w3.org/2000/svg">
<path fill-rule="evenodd" clip-rule="evenodd" d="M23.478 3C34.218 3 42.954 11.736 42.954 22.476C42.954 27.5431 41.0094 32.1646 37.8273 35.633L44.0888 41.8814C44.6748 42.4674 44.6768 43.4154 44.0908 44.0014C43.7988 44.2974 43.4128 44.4434 43.0288 44.4434C42.6468 44.4434 42.2628 44.2974 41.9688 44.0054L35.6317 37.686C32.2981 40.3557 28.0714 41.954 23.478 41.954C12.738 41.954 4 33.216 4 22.476C4 11.736 12.738 3 23.478 3ZM23.478 6C14.392 6 7 13.39 7 22.476C7 31.562 14.392 38.954 23.478 38.954C32.562 38.954 39.954 31.562 39.954 22.476C39.954 13.39 32.562 6 23.478 6Z" fill="black"/>
</svg>
