<svg width="17" height="13" viewBox="0 0 17 13" fill="none" xmlns="http://www.w3.org/2000/svg">
<path d="M12.7251 1.38711H15.8739C16.0827 1.38711 16.283 1.45164 16.4306 1.56651C16.5782 1.68137 16.6611 1.83716 16.6611 1.99961V11.7996C16.6611 11.9621 16.5782 12.1178 16.4306 12.2327C16.283 12.3476 16.0827 12.4121 15.8739 12.4121H1.7042C1.49542 12.4121 1.29519 12.3476 1.14756 12.2327C0.99993 12.1178 0.916992 11.9621 0.916992 11.7996V1.99961C0.916992 1.83716 0.99993 1.68137 1.14756 1.56651C1.29519 1.45164 1.49542 1.38711 1.7042 1.38711H4.85303V0.162109H6.42745V1.38711H11.1507V0.162109H12.7251V1.38711ZM2.49141 5.06211V11.1871H15.0867V5.06211H2.49141ZM4.06582 6.28711H5.64024V7.51211H4.06582V6.28711ZM8.00186 6.28711H9.57628V7.51211H8.00186V6.28711ZM11.9379 6.28711H13.5123V7.51211H11.9379V6.28711Z" fill="white"/>
</svg>